<svg xmlns="http://www.w3.org/2000/svg" viewBox="-20 -20 900 200"><path fill="#1A1A1A" fill-rule="evenodd" d="M55 159C55 158 54 158 53 158C49 158 35 153 29 149C16 141 2 121 2 109C2 108 2 107 1 107C0 107 0 90 0 56C0 6 0 6 18 6C30 6 36 6 37 7C38 8 38 19 38 50C38 73 38 93 39 94C39 96 40 100 41 102C46 119 55 125 78 126C94 126 105 122 110 111C115 102 115 100 116 53C116 22 116 8 117 7C118 6 122 6 135 6C152 6 152 6 152 58C152 122 152 123 134 140C123 151 110 158 101 158C100 158 99 158 99 159C99 160 91 160 77 160C63 160 55 160 55 159ZM385 159C385 159 382 158 379 158C375 157 371 157 368 156C361 154 356 153 352 152C342 150 341 146 344 122C344 113 345 113 358 118C364 120 371 122 374 122C376 123 381 124 384 124C395 126 426 126 432 124C441 121 444 118 444 113C444 104 434 99 409 96C391 94 370 88 362 83C343 71 336 49 347 28C349 24 362 11 366 9C373 6 387 2 392 2C395 2 397 2 397 1C397 0 404 0 415 0C426 0 433 0 433 1C433 1 438 2 443 2C453 3 462 4 469 6C473 7 477 13 475 17C475 19 475 25 475 30C474 41 476 40 464 38C461 37 455 37 452 36C435 33 430 33 415 33C393 33 387 34 383 42C381 47 387 54 394 54C395 54 398 55 400 56C405 57 410 59 421 60C442 63 445 64 460 69C467 72 476 80 481 88C487 98 487 118 481 130C478 135 464 148 459 150C457 151 453 153 451 154C446 156 441 157 434 158C431 158 429 159 429 159C429 160 420 160 407 160C394 160 385 160 385 159ZM229 155C228 154 228 140 228 96C228 45 228 39 226 39C226 38 214 38 201 38C183 38 176 38 175 37C174 36 174 31 174 22C174 13 174 8 175 7C177 5 315 5 317 7C318 8 318 13 318 22C318 31 318 36 317 37C316 38 309 38 293 38C281 38 270 38 270 39C268 39 268 45 268 96C268 140 268 154 267 155C266 156 260 156 248 156C236 156 230 156 229 155ZM495 155C494 153 496 148 500 140C504 130 512 113 518 100C523 88 531 72 538 56C541 49 546 39 549 32C552 26 555 18 557 14C561 6 564 3 569 5C571 5 582 5 594 6C606 6 616 6 617 6C618 6 622 13 627 26C636 47 640 57 649 76C652 82 655 90 657 94C662 106 668 119 674 132C682 149 683 153 683 154C682 156 679 156 661 156C639 156 638 156 637 151C636 150 635 146 633 142C631 138 629 134 628 131C624 121 627 122 588 122C553 122 550 122 550 125C550 125 549 129 547 132C546 136 543 141 541 145C536 157 538 156 515 156C503 156 496 156 495 155ZM733 153C732 152 731 150 731 149C730 147 727 140 723 132C719 124 714 112 711 106C708 100 703 88 699 80C695 72 690 61 687 54C684 48 680 39 677 32C668 11 667 9 667 8C668 6 671 6 690 6C713 6 714 6 715 11C716 14 719 21 724 32C726 37 730 45 732 50C743 74 745 78 750 90C753 97 757 106 759 110C764 121 765 121 770 108C771 105 774 99 776 94C778 89 781 82 783 78C785 74 788 66 791 60C794 54 797 46 799 42C801 38 804 31 806 26C808 21 811 16 812 13C815 6 814 6 838 6C850 6 860 6 860 7C860 7 860 8 859 9C858 10 855 18 846 38C841 50 834 65 826 82C823 89 818 100 815 106C812 112 807 124 803 132C799 140 796 147 795 149C794 156 794 156 763 156C735 156 735 156 733 153ZM609 88C609 87 608 83 595 56C592 51 590 45 590 45C590 44 589 43 589 41C587 39 587 40 579 58C577 62 575 68 573 72C567 85 567 87 567 88C568 91 608 91 609 88Z"/></svg>